<?xml version="1.0" encoding="UTF-8" standalone="no"?>
<!DOCTYPE svg PUBLIC "-//W3C//DTD SVG 1.1//EN" "http://www.w3.org/Graphics/SVG/1.1/DTD/svg11.dtd">
<svg width="100%" height="100%" viewBox="0 0 294 376" version="1.1" xmlns="http://www.w3.org/2000/svg" xmlns:xlink="http://www.w3.org/1999/xlink" xml:space="preserve" xmlns:serif="http://www.serif.com/" style="fill-rule:evenodd;clip-rule:evenodd;stroke-linejoin:round;stroke-miterlimit:2;">
    <path d="M107.56,173.969C101.146,183.808 85.845,185.48 76.5,180.517C66.745,175.336 51.36,161.071 49.03,142.881C47.138,128.109 49.817,107.834 58.01,93.094C66.333,78.117 82.84,60.698 98.969,53.024C115.099,45.35 137.983,44.96 154.788,47.051C170.887,49.053 186.93,57.168 199.798,65.564C212.442,73.816 224.115,84.547 231.991,97.429C239.977,110.49 246.384,127.621 247.711,143.929C249.31,163.575 247.086,194.67 241.583,215.304C236.522,234.282 227.423,252.777 214.693,267.735C200.999,283.826 177.376,301.346 159.417,311.85C143.369,321.237 106.944,330.76 106.944,330.76L100.335,375.833C100.335,375.833 153.37,360.789 177.003,347.152C201.464,333.038 229.783,310.367 247.102,291.15C262.334,274.248 274.377,253.648 280.913,231.854C288.481,206.619 295.473,167.208 292.511,139.741C289.709,113.757 276.148,86.929 263.139,67.047C250.841,48.251 233.948,31.611 214.459,20.45C194.97,9.29 169.546,0.945 146.205,0.084C122.863,-0.778 94.784,5.081 74.411,15.279C54.064,25.465 36.135,44.975 23.967,61.274C12.701,76.364 4.369,94.953 1.403,113.069C-1.564,131.185 0.244,153.26 6.169,169.971C12.092,186.678 23.928,203.381 36.951,213.335C49.974,223.29 68.203,229.572 84.307,229.696C100.411,229.819 123.836,222.872 133.574,214.075C140.656,207.677 147.067,197.412 150.207,188.534C153.3,179.794 155.167,169.339 152.419,160.809C149.671,152.279 140.399,141.267 133.72,137.354C127.573,133.752 117.868,135.272 112.346,137.329C107.016,139.314 102.637,145.051 100.589,149.695C98.54,154.339 98.893,161.146 100.055,165.191C101.118,168.891 105.633,171.434 107.56,173.969Z" style="fill:rgb(0,247,200);"/>
</svg>
