999
"DXF R12 Output" (www.mydxf.blogspot.com)
 0 
SECTION
 2 
HEADER
 9 
$ACADVER
 1 
AC1009
 9 
$EXTMIN
 10 
 0 
 20 
 0 
 9 
$EXTMAX
 10 
 8.5 
 20 
 11 
 0 
ENDSEC
 0 
SECTION
 2 
ENTITIES
0
LINE
8
Layer 1
10
28.458500
20
53.454100
11
27.719574
21
52.578363
0
LINE
8
Layer 1
10
27.719574
20
52.578363
11
26.806227
21
51.900461
0
LINE
8
Layer 1
10
26.806227
20
51.900461
11
25.764482
21
51.415644
0
LINE
8
Layer 1
10
25.764482
20
51.415644
11
24.640363
21
51.119163
0
LINE
8
Layer 1
10
24.640363
20
51.119163
11
23.479892
21
51.006267
0
LINE
8
Layer 1
10
23.479892
20
51.006267
11
22.329092
21
51.072208
0
LINE
8
Layer 1
10
22.329092
20
51.072208
11
21.233987
21
51.312235
0
LINE
8
Layer 1
10
21.233987
20
51.312235
11
20.240600
21
51.721600
0
LINE
8
Layer 1
10
20.240600
20
51.721600
11
18.102795
21
53.179027
0
LINE
8
Layer 1
10
18.102795
20
53.179027
11
16.969253
21
54.205739
0
LINE
8
Layer 1
10
16.969253
20
54.205739
11
15.869862
21
55.409788
0
LINE
8
Layer 1
10
15.869862
20
55.409788
11
14.862558
21
56.775175
0
LINE
8
Layer 1
10
14.862558
20
56.775175
11
14.005273
21
58.285905
0
LINE
8
Layer 1
10
14.005273
20
58.285905
11
13.355943
21
59.925979
0
LINE
8
Layer 1
10
13.355943
20
59.925979
11
12.972500
21
61.679400
0
LINE
8
Layer 1
10
12.972500
20
61.679400
11
12.827713
21
64.838083
0
LINE
8
Layer 1
10
12.827713
20
64.838083
11
13.159850
21
68.268988
0
LINE
8
Layer 1
10
13.159850
20
68.268988
11
13.992312
21
71.698298
0
LINE
8
Layer 1
10
13.992312
20
71.698298
11
14.603478
21
73.326789
0
LINE
8
Layer 1
10
14.603478
20
73.326789
11
15.348500
21
74.852200
0
LINE
8
Layer 1
10
15.348500
20
74.852200
11
17.370689
21
77.894972
0
LINE
8
Layer 1
10
17.370689
20
77.894972
11
19.992512
21
80.877725
0
LINE
8
Layer 1
10
19.992512
20
80.877725
11
23.001580
21
83.498191
0
LINE
8
Layer 1
10
23.001580
20
83.498191
11
24.584958
21
84.578107
0
LINE
8
Layer 1
10
24.584958
20
84.578107
11
26.185500
21
85.454100
0
LINE
8
Layer 1
10
26.185500
20
85.454100
11
27.863026
21
86.127640
0
LINE
8
Layer 1
10
27.863026
20
86.127640
11
29.668300
21
86.635391
0
LINE
8
Layer 1
10
29.668300
20
86.635391
11
33.502925
21
87.213100
0
LINE
8
Layer 1
10
33.502925
20
87.213100
11
37.371037
21
87.306384
0
LINE
8
Layer 1
10
37.371037
20
87.306384
11
40.954300
21
87.034400
0
LINE
8
Layer 1
10
40.954300
20
87.034400
11
44.133256
21
86.357973
0
LINE
8
Layer 1
10
44.133256
20
86.357973
11
47.229300
21
85.219688
0
LINE
8
Layer 1
10
47.229300
20
85.219688
11
50.165069
21
83.764208
0
LINE
8
Layer 1
10
50.165069
20
83.764208
11
52.863200
21
82.136200
0
LINE
8
Layer 1
10
52.863200
20
82.136200
11
55.312341
21
80.377041
0
LINE
8
Layer 1
10
55.312341
20
80.377041
11
57.595075
21
78.380075
0
LINE
8
Layer 1
10
57.595075
20
78.380075
11
59.641297
21
76.153422
0
LINE
8
Layer 1
10
59.641297
20
76.153422
11
61.380900
21
73.705200
0
LINE
8
Layer 1
10
61.380900
20
73.705200
11
62.872781
21
70.931750
0
LINE
8
Layer 1
10
62.872781
20
70.931750
11
64.121175
21
67.875850
0
LINE
8
Layer 1
10
64.121175
20
67.875850
11
65.039231
21
64.658850
0
LINE
8
Layer 1
10
65.039231
20
64.658850
11
65.540100
21
61.402100
0
LINE
8
Layer 1
10
65.540100
20
61.402100
11
65.670017
21
57.026203
0
LINE
8
Layer 1
10
65.670017
20
57.026203
11
65.434112
21
52.057825
0
LINE
8
Layer 1
10
65.434112
20
52.057825
11
64.845877
21
47.040434
0
LINE
8
Layer 1
10
64.845877
20
47.040434
11
63.918800
21
42.517500
0
LINE
8
Layer 1
10
63.918800
20
42.517500
11
62.715848
21
38.788172
0
LINE
8
Layer 1
10
62.715848
20
38.788172
11
61.122363
21
35.182500
0
LINE
8
Layer 1
10
61.122363
20
35.182500
11
59.148420
21
31.776253
0
LINE
8
Layer 1
10
59.148420
20
31.776253
11
56.804100
21
28.645200
0
LINE
8
Layer 1
10
56.804100
20
28.645200
11
53.658598
21
25.416169
0
LINE
8
Layer 1
10
53.658598
20
25.416169
11
49.914738
21
22.254825
0
LINE
8
Layer 1
10
49.914738
20
22.254825
11
45.959283
21
19.370644
0
LINE
8
Layer 1
10
45.959283
20
19.370644
11
42.179000
21
16.973100
0
LINE
8
Layer 1
10
42.179000
20
16.973100
11
40.363381
21
16.045050
0
LINE
8
Layer 1
10
40.363381
20
16.045050
11
38.218438
21
15.143566
0
LINE
8
Layer 1
10
38.218438
20
15.143566
11
33.645050
21
13.540100
0
LINE
8
Layer 1
10
33.645050
20
13.540100
11
28.295600
21
11.969800
0
LINE
8
Layer 1
10
28.295600
20
11.969800
11
26.546900
21
0.044277
0
LINE
8
Layer 1
10
26.546900
20
0.044277
11
34.344613
21
2.485484
0
LINE
8
Layer 1
10
34.344613
20
2.485484
11
41.024511
21
4.924901
0
LINE
8
Layer 1
10
41.024511
20
4.924901
11
44.165108
21
6.270786
0
LINE
8
Layer 1
10
44.165108
20
6.270786
11
46.832000
21
7.632780
0
LINE
8
Layer 1
10
46.832000
20
7.632780
11
51.815916
21
10.808379
0
LINE
8
Layer 1
10
51.815916
20
10.808379
11
56.814100
21
14.535073
0
LINE
8
Layer 1
10
56.814100
20
14.535073
11
61.457984
21
18.514925
0
LINE
8
Layer 1
10
61.457984
20
18.514925
11
65.379000
21
22.450000
0
LINE
8
Layer 1
10
65.379000
20
22.450000
11
68.233797
21
25.977056
0
LINE
8
Layer 1
10
68.233797
20
25.977056
11
70.714700
21
29.808950
0
LINE
8
Layer 1
10
70.714700
20
29.808950
11
72.764203
21
33.883544
0
LINE
8
Layer 1
10
72.764203
20
33.883544
11
74.324800
21
38.138700
0
LINE
8
Layer 1
10
74.324800
20
38.138700
11
75.759239
21
43.741516
0
LINE
8
Layer 1
10
75.759239
20
43.741516
11
76.903887
21
50.102975
0
LINE
8
Layer 1
10
76.903887
20
50.102975
11
77.294852
21
53.365725
0
LINE
8
Layer 1
10
77.294852
20
53.365725
11
77.526142
21
56.575172
0
LINE
8
Layer 1
10
77.526142
20
56.575172
11
77.568683
21
59.650326
0
LINE
8
Layer 1
10
77.568683
20
59.650326
11
77.393400
21
62.510200
0
LINE
8
Layer 1
10
77.393400
20
62.510200
11
76.987819
21
65.094733
0
LINE
8
Layer 1
10
76.987819
20
65.094733
11
76.350430
21
67.676055
0
LINE
8
Layer 1
10
76.350430
20
67.676055
11
75.516304
21
70.230008
0
LINE
8
Layer 1
10
75.516304
20
70.230008
11
74.520512
21
72.732437
0
LINE
8
Layer 1
10
74.520512
20
72.732437
11
72.184214
21
77.486102
0
LINE
8
Layer 1
10
72.184214
20
77.486102
11
69.622100
21
81.743800
0
LINE
8
Layer 1
10
69.622100
20
81.743800
11
66.962052
21
85.352936
0
LINE
8
Layer 1
10
66.962052
20
85.352936
11
63.895663
21
88.665738
0
LINE
8
Layer 1
10
63.895663
20
88.665738
11
60.472517
21
91.599770
0
LINE
8
Layer 1
10
60.472517
20
91.599770
11
56.742200
21
94.072600
0
LINE
8
Layer 1
10
56.742200
20
94.072600
11
52.613558
21
96.128189
0
LINE
8
Layer 1
10
52.613558
20
96.128189
11
48.094963
21
97.788687
0
LINE
8
Layer 1
10
48.094963
20
97.788687
11
43.385286
21
98.938267
0
LINE
8
Layer 1
10
43.385286
20
98.938267
11
41.020940
21
99.285266
0
LINE
8
Layer 1
10
41.020940
20
99.285266
11
38.683400
21
99.461100
0
LINE
8
Layer 1
10
38.683400
20
99.461100
11
36.315115
21
99.464482
0
LINE
8
Layer 1
10
36.315115
20
99.464482
11
33.867906
21
99.308548
0
LINE
8
Layer 1
10
33.867906
20
99.308548
11
28.891050
21
98.548262
0
LINE
8
Layer 1
10
28.891050
20
98.548262
11
24.061494
21
97.239295
0
LINE
8
Layer 1
10
24.061494
20
97.239295
11
21.798410
21
96.397510
0
LINE
8
Layer 1
10
21.798410
20
96.397510
11
19.687900
21
95.440700
0
LINE
8
Layer 1
10
19.687900
20
95.440700
11
17.700806
21
94.320912
0
LINE
8
Layer 1
10
17.700806
20
94.320912
11
15.784059
21
93.008708
0
LINE
8
Layer 1
10
15.784059
20
93.008708
11
13.948022
21
91.542953
0
LINE
8
Layer 1
10
13.948022
20
91.542953
11
12.203061
21
89.962513
0
LINE
8
Layer 1
10
12.203061
20
89.962513
11
9.027823
21
86.613036
0
LINE
8
Layer 1
10
9.027823
20
86.613036
11
6.341260
21
83.271200
0
LINE
8
Layer 1
10
6.341260
20
83.271200
11
4.261274
21
80.119658
0
LINE
8
Layer 1
10
4.261274
20
80.119658
11
2.532720
21
76.719462
0
LINE
8
Layer 1
10
2.532720
20
76.719462
11
1.215923
21
73.169136
0
LINE
8
Layer 1
10
1.215923
20
73.169136
11
0.371210
21
69.567200
0
LINE
8
Layer 1
10
0.371210
20
69.567200
11
0.016611
21
65.814437
0
LINE
8
Layer 1
10
0.016611
20
65.814437
11
0.119459
21
61.900125
0
LINE
8
Layer 1
10
0.119459
20
61.900125
11
0.663433
21
58.055525
0
LINE
8
Layer 1
10
0.663433
20
58.055525
11
1.632210
21
54.511900
0
LINE
8
Layer 1
10
1.632210
20
54.511900
11
3.081358
21
51.224675
0
LINE
8
Layer 1
10
3.081358
20
51.224675
11
4.999957
21
48.105150
0
LINE
8
Layer 1
10
4.999957
20
48.105150
11
7.270783
21
45.320650
0
LINE
8
Layer 1
10
7.270783
20
45.320650
11
9.776610
21
43.038500
0
LINE
8
Layer 1
10
9.776610
20
43.038500
11
12.588834
21
41.255559
0
LINE
8
Layer 1
10
12.588834
20
41.255559
11
15.735739
21
39.898675
0
LINE
8
Layer 1
10
15.735739
20
39.898675
11
19.035477
21
39.029478
0
LINE
8
Layer 1
10
19.035477
20
39.029478
11
22.306200
21
38.709600
0
LINE
8
Layer 1
10
22.306200
20
38.709600
11
23.983945
21
38.782399
0
LINE
8
Layer 1
10
23.983945
20
38.782399
11
25.778155
21
39.014381
0
LINE
8
Layer 1
10
25.778155
20
39.014381
11
29.455412
21
39.891150
0
LINE
8
Layer 1
10
29.455412
20
39.891150
11
32.816864
21
41.210419
0
LINE
8
Layer 1
10
32.816864
20
41.210419
11
34.216316
21
41.995526
0
LINE
8
Layer 1
10
34.216316
20
41.995526
11
35.341400
21
42.842700
0
LINE
8
Layer 1
10
35.341400
20
42.842700
11
36.702703
21
44.282412
0
LINE
8
Layer 1
10
36.702703
20
44.282412
11
37.932925
21
45.975475
0
LINE
8
Layer 1
10
37.932925
20
45.975475
11
38.967584
21
47.791575
0
LINE
8
Layer 1
10
38.967584
20
47.791575
11
39.742200
21
49.600400
0
LINE
8
Layer 1
10
39.742200
20
49.600400
11
40.281164
21
51.404797
0
LINE
8
Layer 1
10
40.281164
20
51.404797
11
40.614413
21
53.289050
0
LINE
8
Layer 1
10
40.614413
20
53.289050
11
40.657880
21
55.162878
0
LINE
8
Layer 1
10
40.657880
20
55.162878
11
40.327500
21
56.936000
0
LINE
8
Layer 1
10
40.327500
20
56.936000
11
39.496220
21
58.712197
0
LINE
8
Layer 1
10
39.496220
20
58.712197
11
38.243787
21
60.497000
0
LINE
8
Layer 1
10
38.243787
20
60.497000
11
36.796336
21
62.052753
0
LINE
8
Layer 1
10
36.796336
20
62.052753
11
35.380000
21
63.141800
0
LINE
8
Layer 1
10
35.380000
20
63.141800
11
34.015705
21
63.621406
0
LINE
8
Layer 1
10
34.015705
20
63.621406
11
32.490413
21
63.706550
0
LINE
8
Layer 1
10
32.490413
20
63.706550
11
30.996114
21
63.510969
0
LINE
8
Layer 1
10
30.996114
20
63.510969
11
29.724800
21
63.148400
0
LINE
8
Layer 1
10
29.724800
20
63.148400
11
28.720030
21
62.588397
0
LINE
8
Layer 1
10
28.720030
20
62.588397
11
27.843837
21
61.776300
0
LINE
8
Layer 1
10
27.843837
20
61.776300
11
27.130452
21
60.832278
0
LINE
8
Layer 1
10
27.130452
20
60.832278
11
26.614100
21
59.876500
0
LINE
8
Layer 1
10
26.614100
20
59.876500
11
26.320097
21
58.868030
0
LINE
8
Layer 1
10
26.320097
20
58.868030
11
26.224900
21
57.767112
0
LINE
8
Layer 1
10
26.224900
20
57.767112
11
26.472900
21
55.776600
0
LINE
8
Layer 1
10
26.472900
20
55.776600
11
26.830091
21
55.095011
0
LINE
8
Layer 1
10
26.830091
20
55.095011
11
27.379975
21
54.499738
0
LINE
8
Layer 1
10
27.379975
20
54.499738
11
28.458500
21
53.454100
0
LINE
8
Layer 1
10
28.458500
20
53.454100
11
28.458500
21
53.454100
 0 
ENDSEC
 0 
EOF